<?xml version="1.0" encoding="UTF-8"?>
<svg width="72px" height="71px" viewBox="0 0 72 71" version="1.1" xmlns="http://www.w3.org/2000/svg" xmlns:xlink="http://www.w3.org/1999/xlink">
    <!-- Generator: Sketch 55.1 (78136) - https://sketchapp.com -->
    <title>customer</title>
    <desc>Created with Sketch.</desc>
    <g id="Page-1" stroke="none" stroke-width="1" fill="none" fill-rule="evenodd">
        <g id="Home-Concept-1" transform="translate(-687.000000, -11568.000000)" fill="#648040" fill-rule="nonzero">
            <g id="customer" transform="translate(687.000000, 11568.000000)">
                <path d="M69.7477351,35.289237 C67.3403763,33.3468889 63.5353459,33.1803115 61.0379871,35.8041127 L54.8382542,42.3194934 C54.0366919,39.797566 51.6307393,37.9612217 48.7946149,37.9612217 L37.7309456,37.9612217 C36.8914145,37.9612217 36.6103052,37.6473403 35.1520243,36.5475162 C29.5919943,31.8023994 21.24084,31.8175428 15.697685,36.5929464 L11.6310922,40.0976807 C9.80310819,39.1505296 7.6685618,39.1271262 5.83059347,40.0260937 L1.16634454,42.30848 C0.124313525,42.8192257 -0.297420754,44.0594705 0.222751002,45.0795852 L12.878295,69.8581863 C13.4000136,70.8783011 14.666904,71.2911653 15.708935,70.781934 L20.3731839,68.498171 C22.6722615,67.3735667 23.9518081,65.077276 23.8688394,62.7399605 L48.7944743,62.7399605 C53.4165357,62.7399605 57.8332847,60.5787214 60.6062685,56.9583466 L70.7321099,43.7403577 C72.6965001,41.1783691 72.3857189,37.4215659 69.7477351,35.289237 Z M18.4859968,64.8046948 L15.7087943,66.1647101 L4.93903118,45.0795852 L7.71763992,43.7195699 C8.75967093,43.2102009 10.025155,43.6218261 10.5468736,44.6433175 L19.4295904,62.0351039 C19.9499028,63.055081 19.5280278,64.2939491 18.4859968,64.8046948 Z M67.3572513,41.2623461 L57.2315505,54.480335 C55.2502853,57.0669661 52.0962079,58.6100789 48.7946149,58.6100789 L22.3966366,58.6100789 L14.492529,43.1331072 L18.4845906,39.6930765 C22.4569647,36.2721815 28.4473071,36.2721815 32.4196812,39.6930765 C34.75954,41.7097649 36.2148678,42.0911033 37.7308049,42.0911033 L48.7944743,42.0911033 C49.9574428,42.0911033 50.9037082,43.0176043 50.9037082,44.1559753 C50.9037082,45.2943462 49.9573022,46.2208472 48.7944743,46.2208472 L38.0218986,46.2208472 C36.8575239,46.2208472 35.9126647,47.1459715 35.9126647,48.2857192 C35.9126647,49.4254668 36.8576645,50.3505911 38.0218986,50.3505911 L50.2077552,50.3505911 C51.9583955,50.3505911 53.6458951,49.6319678 54.8382542,48.3779563 L64.1245646,38.6192715 C64.9739394,37.7271873 66.2759859,37.8015277 67.0747358,38.4857342 C67.9099074,39.2014665 68.000048,40.4253289 67.3572513,41.2623461 Z" id="Shape"></path>
                <path d="M44.563421,14.0021133 C45.9818774,12.5289051 46.8562399,10.5372216 46.8562399,8.34430413 C46.8562399,3.82741395 43.1712093,0 38.5689959,0 C34.001315,0 30.143622,3.8205739 30.143622,8.34430413 C30.143622,10.4700524 30.9848333,12.476784 32.5124124,14.0185294 C28.7237843,16.1223896 26,20.1604768 26,24.8962484 L26,26.9481242 C26,28.0806983 26.9282332,29 28.071811,29 L48.928189,29 C50.0717668,29 51,28.0806983 51,26.9481242 L51,24.8962484 C51,20.2535014 48.4213903,16.1524858 44.563421,14.0021133 Z M38.5689959,4.10388845 C40.8148506,4.10388845 42.7126179,6.0463236 42.7126179,8.34444093 C42.7126179,10.6069901 40.853527,12.4481926 38.5689959,12.4481926 C36.248551,12.4481926 34.287244,10.5686858 34.287244,8.34444093 C34.287244,6.08599584 36.2886087,4.10388845 38.5689959,4.10388845 Z M30.143622,24.8962484 C30.143622,20.3725181 34.001315,16.5519442 38.5689959,16.5519442 C43.1380581,16.5519442 46.8562399,20.2945416 46.8562399,24.8962484 L30.143622,24.8962484 Z" id="Shape"></path>
            </g>
        </g>
    </g>
</svg>