<?xml version="1.0" encoding="UTF-8"?>
<svg width="69px" height="69px" viewBox="0 0 69 69" version="1.1" xmlns="http://www.w3.org/2000/svg" xmlns:xlink="http://www.w3.org/1999/xlink">
    <!-- Generator: Sketch 55.1 (78136) - https://sketchapp.com -->
    <title>phone-call</title>
    <desc>Created with Sketch.</desc>
    <g id="Page-1" stroke="none" stroke-width="1" fill="none" fill-rule="evenodd">
        <g id="Home-Concept-1" transform="translate(-236.000000, -11570.000000)" fill="#648040" fill-rule="nonzero">
            <g id="phone-call" transform="translate(236.000000, 11570.000000)">
                <path d="M54.7178625,42.7466398 C53.2991323,41.2759857 51.5878804,40.4896953 49.7742459,40.4896953 C47.9752375,40.4896953 46.2493595,41.2614247 44.7721249,42.7320789 L40.1502822,47.3187724 C39.770004,47.1149194 39.3897258,46.9256272 39.0240737,46.7363351 C38.4975346,46.4742384 38.0002477,46.2267025 37.5760913,45.9646057 C33.2467702,43.2271505 29.3123535,39.6597222 25.5388236,35.0439068 C23.710563,32.7432796 22.4819719,30.8066756 21.5897808,28.8409498 C22.7891197,27.7488799 23.9007021,26.6131272 24.9830324,25.5210573 C25.3925628,25.1133513 25.8020932,24.6910842 26.2116235,24.2833781 C29.2831013,21.2255824 29.2831013,17.265009 26.2116235,14.2072133 L22.2187024,10.2320789 C21.7652938,9.78068996 21.2972591,9.31474014 20.8584765,8.84879032 C19.9809115,7.94601254 19.0594681,7.0141129 18.1087726,6.14045699 C16.6900424,4.74260753 14.9934166,4 13.2090343,4 C11.4246519,4 9.69877396,4.74260753 8.23616549,6.14045699 C8.22153941,6.15501792 8.22153941,6.15501792 8.20691332,6.16957885 L3.23404454,11.1639785 C1.36190571,13.0277778 0.294201529,15.2992832 0.0601841748,17.9348118 C-0.290841857,22.1866039 0.967001423,26.1471774 1.93232301,28.7390233 C4.30174872,35.1021505 7.84126121,40.999328 13.1212778,47.3187724 C19.5275028,54.9341398 27.2354494,60.9478047 36.0403524,65.1850358 C39.4043519,66.7721774 43.8945599,68.6505376 48.9113069,68.9708781 C49.2184547,68.9854391 49.5402285,69 49.8327502,69 C53.2113758,69 56.0488362,67.7914427 58.2720011,65.3888889 C58.2866271,65.359767 58.3158793,65.3452061 58.3305054,65.3160842 C59.0910618,64.3987455 59.9686269,63.5687724 60.8900702,62.6805556 C61.5189919,62.0835573 62.1625396,61.4574373 62.7914612,60.8021953 C64.2394436,59.3024194 65,57.5551075 65,55.7641129 C65,53.9585573 64.2248175,52.2258065 62.747583,50.7697133 L54.7178625,42.7466398 Z M59.9540008,58.0793011 C59.9393747,58.0793011 59.9393747,58.093862 59.9540008,58.0793011 C59.3835835,58.6908602 58.7985401,59.2441756 58.1696185,59.8557348 C57.218923,60.7585125 56.2536014,61.7049731 55.3467841,62.7679211 C53.8695496,64.3405018 52.1290455,65.0831093 49.8473763,65.0831093 C49.627985,65.0831093 49.3939677,65.0831093 49.1745764,65.0685484 C44.8306293,64.7918907 40.7938299,63.1028226 37.7662304,61.6612903 C29.4878665,57.671595 22.2187024,52.0073925 16.1781295,44.828853 C11.1906346,38.84431 7.85588729,33.3111559 5.64734851,27.3702957 C4.28712264,23.7446237 3.78983576,20.9198029 4.00922703,18.2551523 C4.15548788,16.5515233 4.81366168,15.1391129 6.02762671,13.9305556 L11.0151216,8.96527778 C11.7317997,8.29547491 12.4923561,7.93145161 13.2382864,7.93145161 C14.1597298,7.93145161 14.9056601,8.48476703 15.3736948,8.95071685 C15.3883209,8.96527778 15.402947,8.97983871 15.4175731,8.99439964 C16.3097642,9.82437276 17.1580771,10.6834677 18.0502683,11.6008065 C18.5036769,12.0667563 18.9717116,12.5327061 19.4397463,13.0132168 L23.4326674,16.9883513 C24.9830324,18.53181 24.9830324,19.9587814 23.4326674,21.5022401 C23.008511,21.9245072 22.5989806,22.3467742 22.1748242,22.7544803 C20.946233,24.0067204 19.7761463,25.171595 18.5036769,26.3073477 C18.4744247,26.3364695 18.4451726,26.3510305 18.4305465,26.3801523 C17.1727032,27.6323925 17.4067206,28.8555108 17.6699901,29.6854839 C17.6846162,29.7291667 17.6992423,29.7728495 17.7138683,29.8165323 C18.7523204,32.3210125 20.2149288,34.6798835 22.4380937,37.4901434 L22.4527198,37.5047043 C26.4895191,42.4554211 30.7457098,46.3140681 35.4406829,49.2699373 C36.0403524,49.6485215 36.654648,49.9543011 37.2396913,50.2455197 C37.7662304,50.5076165 38.2635173,50.7551523 38.6876737,51.0172491 C38.7461781,51.046371 38.8046824,51.0900538 38.8631867,51.1191756 C39.3604736,51.3667115 39.8285083,51.4831989 40.3111691,51.4831989 C41.5251341,51.4831989 42.2856905,50.7260305 42.534334,50.4784946 L47.5364549,45.4986559 C48.0337418,45.0035842 48.8235504,44.406586 49.7449937,44.406586 C50.651811,44.406586 51.3977413,44.9744624 51.8511499,45.4695341 C51.865776,45.484095 51.865776,45.484095 51.8804021,45.4986559 L59.9393747,53.5217294 C61.4458614,55.0069444 61.4458614,56.5358423 59.9540008,58.0793011 Z" id="Shape"></path>
                <path d="M37.6342329,15.9388751 C41.4873667,16.5860212 44.9875417,18.4097966 47.781799,21.2042912 C50.5760563,23.9987858 52.3849703,27.499258 53.0467681,31.352719 C53.2085409,32.3234382 54.046818,33 55.0027482,33 C55.1204011,33 55.2233474,32.9852921 55.3410004,32.9705843 C56.4292901,32.7940899 57.1499143,31.7645392 56.9734349,30.6761571 C56.1792776,26.0137635 53.973285,21.7631902 50.6054696,18.3950888 C47.2376542,15.0269874 42.9874417,12.8208075 38.325444,12.0265827 C37.2371543,11.8500883 36.2223977,12.5707737 36.0312116,13.644448 C35.8400256,14.7181222 36.5459432,15.7623807 37.6342329,15.9388751 Z" id="Path"></path>
                <path d="M68.9706877,29.7774396 C67.7031435,22.3404104 64.1995944,15.5729988 58.8160922,10.1875638 C53.4325899,4.8021289 46.667607,1.29732204 39.2332467,0.0293228113 C38.1935756,-0.155890559 37.2108728,0.556468558 37.0257259,1.59651287 C36.8548211,2.65080436 37.5526825,3.63385995 38.6065957,3.81907332 C45.2434,4.94460072 51.2962795,8.09322802 56.110099,12.8945285 C60.9239185,17.7100761 64.0571738,23.7651286 65.1822972,30.4043156 C65.33896,31.3446296 66.150758,32 67.0764925,32 C67.190429,32 67.2901235,31.9857528 67.4040601,31.9715056 C68.4437311,31.8147866 69.1558346,30.8174839 68.9706877,29.7774396 Z" id="Path"></path>
            </g>
        </g>
    </g>
</svg>