<?xml version="1.0" encoding="UTF-8"?>
<svg width="69px" height="69px" viewBox="0 0 69 69" version="1.1" xmlns="http://www.w3.org/2000/svg" xmlns:xlink="http://www.w3.org/1999/xlink">
    <!-- Generator: Sketch 55.1 (78136) - https://sketchapp.com -->
    <title>interview</title>
    <desc>Created with Sketch.</desc>
    <g id="Page-1" stroke="none" stroke-width="1" fill="none" fill-rule="evenodd">
        <g id="Home-Concept-1" transform="translate(-1173.000000, -11568.000000)" fill="#648040" fill-rule="nonzero">
            <g id="interview" transform="translate(1173.000000, 11568.000000)">
                <path d="M61.4095957,50.4007266 C63.5783789,48.545543 64.9570312,45.791877 64.9570312,42.7207031 C64.9570312,39.4211016 63.3673359,36.4861758 60.9140625,34.640291 C60.9140625,34.6385391 60.9140625,34.6366523 60.9140625,34.6347656 C60.9140625,20.1059531 49.0258477,8.22070312 34.5,8.22070312 C30.875209,8.22070312 27.4029727,8.87701172 24.2570039,10.1408438 C24.2570039,10.1296582 24.2578125,10.1186074 24.2578125,10.1074219 C24.2578125,4.53418945 19.723623,0 14.1503906,0 C8.5771582,0 4.04296875,4.53418945 4.04296875,10.1074219 C4.04296875,13.1785957 5.42162109,15.9322617 7.5904043,17.7874453 C3.08222461,20.1563555 0,24.8858203 0,30.3222656 L0,34.3652344 C0,35.4816328 0.905085937,36.3867188 2.02148438,36.3867188 L8.16329297,36.3867188 C9.19492383,49.932416 20.6110547,60.7792969 34.5,60.7792969 C36.7605586,60.7792969 38.9491523,60.5382012 40.990043,60.0742031 C40.7994844,60.9985605 40.6992188,61.9555312 40.6992188,62.9355469 L40.6992188,66.9785156 C40.6992188,68.0949141 41.6043047,69 42.7207031,69 L66.9785156,69 C68.0949141,69 69,68.0949141 69,66.9785156 L69,62.9355469 C69,57.4991016 65.9177754,52.7696367 61.4095957,50.4007266 Z M60.9140625,42.7207031 C60.9140625,46.0646426 58.1935488,48.7851563 54.8496094,48.7851563 C51.5056699,48.7851563 48.7851562,46.0646426 48.7851562,42.7207031 C48.7851562,39.3767637 51.5056699,36.65625 54.8496094,36.65625 C58.1935488,36.65625 60.9140625,39.3767637 60.9140625,42.7207031 Z M14.1503906,4.04296875 C17.4943301,4.04296875 20.2148438,6.76348242 20.2148438,10.1074219 C20.2148438,13.4513613 17.4943301,16.171875 14.1503906,16.171875 C10.8064512,16.171875 8.0859375,13.4513613 8.0859375,10.1074219 C8.0859375,6.76348242 10.8064512,4.04296875 14.1503906,4.04296875 Z M4.04296875,32.34375 L4.04296875,30.3222656 C4.04296875,24.7490332 8.5771582,20.2148438 14.1503906,20.2148438 C19.723623,20.2148438 24.2578125,24.7490332 24.2578125,30.3222656 L24.2578125,32.34375 L4.04296875,32.34375 Z M34.5,56.7363281 C22.845873,56.7363281 13.2465176,47.7783223 12.2212207,36.3867187 L26.2792969,36.3867187 C27.3956953,36.3867187 28.3007812,35.4816328 28.3007812,34.3652344 L28.3007812,30.3222656 C28.3007812,24.8858203 25.2185566,20.1563555 20.710377,17.7874453 C21.5094023,17.1039141 22.2016934,16.2993633 22.7565234,15.4006113 C26.1218906,13.3488047 30.1698457,12.2636719 34.5,12.2636719 C46.2186797,12.2636719 55.8607559,21.3212695 56.795625,32.803166 C56.1655957,32.6797207 55.5153516,32.6132812 54.8496094,32.6132812 C49.276377,32.6132812 44.7421875,37.1474707 44.7421875,42.7207031 C44.7421875,45.791877 46.1208398,48.545543 48.289623,50.4007266 C46.128791,51.536127 44.295709,53.2136895 42.9725801,55.25175 C40.515668,56.2238145 37.6019004,56.7363281 34.5,56.7363281 Z M64.9570313,64.9570313 L44.7421875,64.9570313 L44.7421875,62.9355469 C44.7421875,57.3623145 49.276377,52.828125 54.8496094,52.828125 C60.4228418,52.828125 64.9570313,57.3623145 64.9570313,62.9355469 L64.9570313,64.9570313 Z" id="Shape"></path>
            </g>
        </g>
    </g>
</svg>