<?xml version="1.0" encoding="UTF-8"?>
<svg width="43px" height="43px" viewBox="0 0 43 43" version="1.1" xmlns="http://www.w3.org/2000/svg" xmlns:xlink="http://www.w3.org/1999/xlink">
    <!-- Generator: Sketch 55.1 (78136) - https://sketchapp.com -->
    <title>Group 31</title>
    <desc>Created with Sketch.</desc>
    <g id="Page-1" stroke="none" stroke-width="1" fill="none" fill-rule="evenodd">
        <g id="Home-Concept-1" transform="translate(-1461.000000, -12971.000000)">
            <g id="Group-32" transform="translate(1462.000000, 12972.000000)">
                <g id="Group-31">
                    <circle id="Oval-Copy-2" stroke="#648040" cx="20.5" cy="20.5" r="20.5"></circle>
                    <g id="youtube" transform="translate(11.000000, 13.000000)" fill="#648040" fill-rule="nonzero">
                        <path d="M15.8462563,0 L4.1537437,0 C0.946821733,0 0,0.930175781 0,4.40248179 L0,10.5975182 C0,14.1493135 0.911088423,15 4.1537437,15 L15.8462563,15 C19.0864702,15 20,14.0696088 20,10.5975182 L20,4.40248179 C20,1.07493681 19.0083452,0 15.8462563,0 Z M13.0371084,7.80141072 L7.56813977,10.5659747 C7.4224134,10.6396375 7.25408405,10.5270281 7.25408405,10.3559298 L7.25408405,4.65400226 C7.25408405,4.48046693 7.42683855,4.36799544 7.57286861,4.4464404 L13.0418372,7.38380398 C13.2044399,7.47112343 13.20162,7.71827562 13.0371084,7.80141072 Z" id="Shape"></path>
                    </g>
                </g>
            </g>
        </g>
    </g>
</svg>